<?xml version="1.0" encoding="UTF-8" standalone="no"?>
<!-- Created with Inkscape (http://www.inkscape.org/) -->

<svg
   xmlns:dc="http://purl.org/dc/elements/1.1/"
   xmlns:cc="http://creativecommons.org/ns#"
   xmlns:rdf="http://www.w3.org/1999/02/22-rdf-syntax-ns#"
   xmlns:svg="http://www.w3.org/2000/svg"
   xmlns="http://www.w3.org/2000/svg"
   xmlns:sodipodi="http://sodipodi.sourceforge.net/DTD/sodipodi-0.dtd"
   xmlns:inkscape="http://www.inkscape.org/namespaces/inkscape"
   width="333.92245mm"
   height="373.3912mm"
   viewBox="0 0 333.92245 373.3912"
   version="1.1"
   id="svg6424"
   inkscape:version="0.92.4 (5da689c313, 2019-01-14)"
   sodipodi:docname="armDrehenUhrzeiger.svg"
   inkscape:export-filename="/home/christian/Dokumente/armDrehenUhrzeiger.png"
   inkscape:export-xdpi="96"
   inkscape:export-ydpi="96">
  <defs
     id="defs6418">
    <marker
       inkscape:stockid="TriangleInS"
       orient="auto"
       refY="0.0"
       refX="0.0"
       id="TriangleInS"
       style="overflow:visible"
       inkscape:isstock="true">
      <path
         id="path9794"
         d="M 5.77,0.0 L -2.88,5.0 L -2.88,-5.0 L 5.77,0.0 z "
         style="fill-rule:evenodd;stroke:#ffffff;stroke-width:1pt;stroke-opacity:1;fill:#ffffff;fill-opacity:1"
         transform="scale(-0.2)" />
    </marker>
    <marker
       inkscape:stockid="Arrow2Sstart"
       orient="auto"
       refY="0.0"
       refX="0.0"
       id="marker16171"
       style="overflow:visible"
       inkscape:isstock="true">
      <path
         id="path16169"
         style="fill-rule:evenodd;stroke-width:0.625;stroke-linejoin:round;stroke:#ffffff;stroke-opacity:1;fill:#ffffff;fill-opacity:1"
         d="M 8.7185878,4.0337352 L -2.2072895,0.016013256 L 8.7185884,-4.0017078 C 6.9730900,-1.6296469 6.9831476,1.6157441 8.7185878,4.0337352 z "
         transform="scale(0.3) translate(-2.3,0)" />
    </marker>
    <marker
       inkscape:stockid="Arrow2Sstart"
       orient="auto"
       refY="0.0"
       refX="0.0"
       id="marker15909"
       style="overflow:visible"
       inkscape:isstock="true">
      <path
         id="path15907"
         style="fill-rule:evenodd;stroke-width:0.625;stroke-linejoin:round;stroke:#ffffff;stroke-opacity:1;fill:#ffffff;fill-opacity:1"
         d="M 8.7185878,4.0337352 L -2.2072895,0.016013256 L 8.7185884,-4.0017078 C 6.9730900,-1.6296469 6.9831476,1.6157441 8.7185878,4.0337352 z "
         transform="scale(0.3) translate(-2.3,0)" />
    </marker>
    <marker
       inkscape:stockid="Arrow1Sstart"
       orient="auto"
       refY="0.0"
       refX="0.0"
       id="marker15857"
       style="overflow:visible"
       inkscape:isstock="true">
      <path
         id="path15855"
         d="M 0.0,0.0 L 5.0,-5.0 L -12.5,0.0 L 5.0,5.0 L 0.0,0.0 z "
         style="fill-rule:evenodd;stroke:#ffffff;stroke-width:1pt;stroke-opacity:1;fill:#ffffff;fill-opacity:1"
         transform="scale(0.2) translate(6,0)" />
    </marker>
    <marker
       inkscape:stockid="Arrow2Sstart"
       orient="auto"
       refY="0.0"
       refX="0.0"
       id="Arrow2Sstart"
       style="overflow:visible"
       inkscape:isstock="true">
      <path
         id="path9685"
         style="fill-rule:evenodd;stroke-width:0.625;stroke-linejoin:round;stroke:#ffffff;stroke-opacity:1;fill:#ffffff;fill-opacity:1"
         d="M 8.7185878,4.0337352 L -2.2072895,0.016013256 L 8.7185884,-4.0017078 C 6.9730900,-1.6296469 6.9831476,1.6157441 8.7185878,4.0337352 z "
         transform="scale(0.3) translate(-2.3,0)" />
    </marker>
    <marker
       inkscape:stockid="Arrow2Mstart"
       orient="auto"
       refY="0"
       refX="0"
       id="Arrow2Mstart"
       style="overflow:visible"
       inkscape:isstock="true">
      <path
         id="path9679"
         style="fill:#ffffff;fill-opacity:1;fill-rule:evenodd;stroke:#ffffff;stroke-width:0.625;stroke-linejoin:round;stroke-opacity:1"
         d="M 8.7185878,4.0337352 -2.2072895,0.01601326 8.7185884,-4.0017078 c -1.7454984,2.3720609 -1.7354408,5.6174519 -6e-7,8.035443 z"
         transform="scale(0.6)"
         inkscape:connector-curvature="0" />
    </marker>
    <marker
       inkscape:stockid="Arrow2Lstart"
       orient="auto"
       refY="0"
       refX="0"
       id="Arrow2Lstart"
       style="overflow:visible"
       inkscape:isstock="true">
      <path
         id="path9673"
         style="fill:#000000;fill-opacity:1;fill-rule:evenodd;stroke:#000000;stroke-width:0.625;stroke-linejoin:round;stroke-opacity:1"
         d="M 8.7185878,4.0337352 -2.2072895,0.01601326 8.7185884,-4.0017078 c -1.7454984,2.3720609 -1.7354408,5.6174519 -6e-7,8.035443 z"
         transform="matrix(1.1,0,0,1.1,1.1,0)"
         inkscape:connector-curvature="0" />
    </marker>
    <marker
       inkscape:stockid="Arrow1Sstart"
       orient="auto"
       refY="0"
       refX="0"
       id="Arrow1Sstart"
       style="overflow:visible"
       inkscape:isstock="true">
      <path
         id="path9667"
         d="M 0,0 5,-5 -12.5,0 5,5 Z"
         style="fill:#000000;fill-opacity:1;fill-rule:evenodd;stroke:#000000;stroke-width:1.00000003pt;stroke-opacity:1"
         transform="matrix(0.2,0,0,0.2,1.2,0)"
         inkscape:connector-curvature="0" />
    </marker>
    <marker
       inkscape:stockid="Arrow1Mend"
       orient="auto"
       refY="0"
       refX="0"
       id="Arrow1Mend-7"
       style="overflow:visible"
       inkscape:isstock="true">
      <path
         id="path9270-3"
         d="M 0,0 5,-5 -12.5,0 5,5 Z"
         style="fill:#ffffff;fill-opacity:1;fill-rule:evenodd;stroke:#ffffff;stroke-width:1.00000003pt;stroke-opacity:1"
         transform="matrix(-0.4,0,0,-0.4,-4,0)"
         inkscape:connector-curvature="0" />
    </marker>
  </defs>
  <sodipodi:namedview
     id="base"
     pagecolor="#ffffff"
     bordercolor="#666666"
     borderopacity="1.0"
     inkscape:pageopacity="0.0"
     inkscape:pageshadow="2"
     inkscape:zoom="0.35"
     inkscape:cx="421.58541"
     inkscape:cy="623.66708"
     inkscape:document-units="mm"
     inkscape:current-layer="layer1"
     showgrid="false"
     inkscape:window-width="2160"
     inkscape:window-height="1330"
     inkscape:window-x="-12"
     inkscape:window-y="-12"
     inkscape:window-maximized="1"
     inkscape:snap-bbox="true"
     inkscape:bbox-paths="true"
     inkscape:bbox-nodes="true"
     inkscape:snap-bbox-edge-midpoints="true"
     inkscape:snap-bbox-midpoints="true"
     inkscape:object-paths="true"
     inkscape:snap-intersection-paths="true"
     inkscape:snap-smooth-nodes="true"
     inkscape:snap-midpoints="true"
     inkscape:snap-object-midpoints="true"
     inkscape:snap-center="true"
     inkscape:snap-text-baseline="true"
     inkscape:snap-page="true" />
  <metadata
     id="metadata6421">
    <rdf:RDF>
      <cc:Work
         rdf:about="">
        <dc:format>image/svg+xml</dc:format>
        <dc:type
           rdf:resource="http://purl.org/dc/dcmitype/StillImage" />
        <dc:title />
      </cc:Work>
    </rdf:RDF>
  </metadata>
  <g
     inkscape:label="Ebene 1"
     inkscape:groupmode="layer"
     id="layer1"
     transform="translate(108.99848,28.54902)">
    <rect
       class="fil3 str3"
       x="82.172829"
       y="59.078445"
       width="50.799999"
       height="144.72708"
       id="rect679-0-4-0-6"
       style="clip-rule:evenodd;fill:#fefefe;fill-rule:evenodd;stroke:#fefefe;stroke-width:0.62499875;image-rendering:optimizeQuality;shape-rendering:geometricPrecision;text-rendering:geometricPrecision" />
    <ellipse
       class="fil3 str3"
       cx="107.57282"
       cy="59.078445"
       rx="25.4"
       ry="23.547916"
       id="ellipse681-4-84-4-6"
       style="clip-rule:evenodd;fill:#fefefe;fill-rule:evenodd;stroke:#fefefe;stroke-width:0.62499875;image-rendering:optimizeQuality;shape-rendering:geometricPrecision;text-rendering:geometricPrecision" />
    <path
       class="fil3 str1"
       d="m -12.283545,40.821759 c 25.4,0 46.30208,20.6375 46.30208,46.302091 0,25.4 -20.6375,46.30208 -46.30208,46.30208 -25.4,0 -46.30209,-20.6375 -46.30209,-46.30208 0,-25.400001 20.6375,-46.302091 46.30209,-46.302091 z m 0,18.52084 c 15.3458303,0 27.78125,12.43541 27.78125,27.781251 0,15.34583 -12.4354197,27.78125 -27.78125,27.78125 -15.34584,0 -27.78125,-12.43542 -27.78125,-27.78125 0,-15.345841 12.43541,-27.781251 27.78125,-27.781251 z"
       id="path687-7-87-5-6"
       inkscape:connector-curvature="0"
       style="clip-rule:evenodd;fill:#fefefe;fill-rule:evenodd;stroke:#fefefe;stroke-width:1.5624969;image-rendering:optimizeQuality;shape-rendering:geometricPrecision;text-rendering:geometricPrecision" />
    <path
       class="fil3 str1"
       d="m -71.021045,66.221759 c 12.7,0 8.73125,23.812501 19.57916,30.691675 4.49792,2.64583 -19.05,-10.054174 -46.30208,0 0,-12.700004 13.75833,-30.691675 26.72292,-30.691675 z"
       id="path689-0-1-8-3"
       inkscape:connector-curvature="0"
       style="clip-rule:evenodd;fill:#fefefe;fill-rule:evenodd;stroke:#fefefe;stroke-width:1.5624969;image-rendering:optimizeQuality;shape-rendering:geometricPrecision;text-rendering:geometricPrecision" />
    <path
       class="fil3 str1"
       d="m -12.283545,40.821759 c 25.4,0 46.30208,20.6375 46.30208,46.302091 0,25.4 -20.6375,46.30208 -46.30208,46.30208 -25.4,0 -46.30209,-20.6375 -46.30209,-46.30208 0,-25.400001 20.6375,-46.302091 46.30209,-46.302091 z m 0,18.52084 c 15.3458303,0 27.78125,12.43541 27.78125,27.781251 0,15.34583 -12.4354197,27.78125 -27.78125,27.78125 -15.34584,0 -27.78125,-12.43542 -27.78125,-27.78125 0,-15.345841 12.43541,-27.781251 27.78125,-27.781251 z"
       id="path691-1-2-7-6"
       inkscape:connector-curvature="0"
       style="clip-rule:evenodd;fill:#fefefe;fill-rule:evenodd;stroke:#fefefe;stroke-width:1.5624969;image-rendering:optimizeQuality;shape-rendering:geometricPrecision;text-rendering:geometricPrecision" />
    <path
       class="fil3 str1"
       d="m -71.021045,66.221759 c 12.7,0 8.73125,23.812501 19.57916,30.691675 4.49792,2.64583 -19.05,-10.054174 -46.30208,0 0,-12.700004 13.75833,-30.691675 26.72292,-30.691675 z"
       id="path693-7-4-6-8"
       inkscape:connector-curvature="0"
       style="clip-rule:evenodd;fill:#fefefe;fill-rule:evenodd;stroke:#fefefe;stroke-width:1.5624969;image-rendering:optimizeQuality;shape-rendering:geometricPrecision;text-rendering:geometricPrecision" />
    <path
       class="fil3 str1"
       d="m -12.283545,133.16135 c -25.4,0 -46.30209,-20.6375 -46.30209,-46.30209 0,-25.400001 20.6375,-46.302081 46.30209,-46.302081 25.4,0 46.30208,20.6375 46.30208,46.302081 0,25.4 -20.6375,46.30209 -46.30208,46.30209 z m 0,-18.52084 c -15.34584,0 -27.78125,-12.43541 -27.78125,-27.78125 0,-15.345831 12.43541,-27.781251 27.78125,-27.781251 15.3458303,0 27.78125,12.43542 27.78125,27.781251 0,15.34584 -12.4354197,27.78125 -27.78125,27.78125 z"
       id="path695-0-8-0-7"
       inkscape:connector-curvature="0"
       style="clip-rule:evenodd;fill:#fefefe;fill-rule:evenodd;stroke:#fefefe;stroke-width:1.5624969;image-rendering:optimizeQuality;shape-rendering:geometricPrecision;text-rendering:geometricPrecision" />
    <path
       class="fil3 str1"
       d="m 46.453955,107.76135 c -12.7,0 -8.73125,-23.812501 -19.57917,-30.691671 -4.49791,-2.64583 19.05,10.054171 46.30209,0 0,12.700001 -13.75834,30.691671 -26.72292,30.691671 z"
       id="path697-4-0-1-8"
       inkscape:connector-curvature="0"
       style="clip-rule:evenodd;fill:#fefefe;fill-rule:evenodd;stroke:#fefefe;stroke-width:1.5624969;image-rendering:optimizeQuality;shape-rendering:geometricPrecision;text-rendering:geometricPrecision" />
    <path
       class="fil3 str1"
       d="m 8.3539553,28.386349 c 0,12.7 -23.8125003,8.73125 -30.6916703,19.57916 -2.64583,4.49792 10.05417,-19.05 0,-46.3020799 12.7000003,0 30.6916703,13.7583299 30.6916703,26.7229199 z"
       id="path699-6-8-5-0"
       inkscape:connector-curvature="0"
       style="clip-rule:evenodd;fill:#fefefe;fill-rule:evenodd;stroke:#fefefe;stroke-width:1.5624969;image-rendering:optimizeQuality;shape-rendering:geometricPrecision;text-rendering:geometricPrecision" />
    <path
       class="fil3 str1"
       d="m -58.585635,87.12385 c 0,-25.400001 20.6375,-46.302091 46.30209,-46.302091 25.4,0 46.30208,20.6375 46.30208,46.302091 0,25.4 -20.6375,46.30208 -46.30208,46.30208 -25.4,0 -46.30209,-20.6375 -46.30209,-46.30208 z m 18.52084,0 c 0,-15.345841 12.43541,-27.781251 27.78125,-27.781251 15.3458303,0 27.78125,12.43541 27.78125,27.781251 0,15.34583 -12.4354197,27.78125 -27.78125,27.78125 -15.34584,0 -27.78125,-12.43542 -27.78125,-27.78125 z"
       id="path701-3-6-0-6"
       inkscape:connector-curvature="0"
       style="clip-rule:evenodd;fill:#fefefe;fill-rule:evenodd;stroke:#fefefe;stroke-width:1.5624969;image-rendering:optimizeQuality;shape-rendering:geometricPrecision;text-rendering:geometricPrecision" />
    <path
       class="fil3 str1"
       d="m -32.921045,145.59676 c 0,-12.7 23.8125003,-8.73125 30.6916703,-19.57916 2.64583005,-4.49792 -10.0541703,19.05 0,46.30209 -12.7000003,0 -30.6916703,-13.75833 -30.6916703,-26.72293 z"
       id="path703-3-5-2-7"
       inkscape:connector-curvature="0"
       style="clip-rule:evenodd;fill:#fefefe;fill-rule:evenodd;stroke:#fefefe;stroke-width:1.5624969;image-rendering:optimizeQuality;shape-rendering:geometricPrecision;text-rendering:geometricPrecision" />
    <path
       class="fil3 str1"
       d="m -39.271045,30.767599 c 8.99583,8.99583 -10.84792,23.01875 -7.67292,35.45416 1.32292,5.02709 -6.35,-20.6375 -32.80833,-32.80833 8.99583,-8.99583 31.48541,-11.90625 40.48125,-2.91042 z"
       id="path705-2-0-8-4"
       inkscape:connector-curvature="0"
       style="clip-rule:evenodd;fill:#fefefe;fill-rule:evenodd;stroke:#fefefe;stroke-width:1.5624969;image-rendering:optimizeQuality;shape-rendering:geometricPrecision;text-rendering:geometricPrecision" />
    <path
       class="fil3 str1"
       d="m 14.439375,143.21551 c -8.9958397,-8.99583 10.84791,-23.01875 7.67291,-35.45416 -1.32291,-5.02709 6.35,20.6375 32.80834,32.80833 -8.99584,8.99584 -31.48542,11.90626 -40.48125,2.91042 z"
       id="path707-1-4-2-1"
       inkscape:connector-curvature="0"
       style="clip-rule:evenodd;fill:#fefefe;fill-rule:evenodd;stroke:#fefefe;stroke-width:1.5624969;image-rendering:optimizeQuality;shape-rendering:geometricPrecision;text-rendering:geometricPrecision" />
    <rect
       ry="4.2652855"
       y="-28.460089"
       x="-108.90955"
       height="373.21335"
       width="333.7446"
       id="rect3844-0-9-1-7"
       style="clip-rule:evenodd;opacity:1;fill:#b0cb1f;fill-opacity:1;fill-rule:evenodd;stroke:#000000;stroke-width:0.17786233;stroke-miterlimit:4;stroke-dasharray:none;stroke-dashoffset:0;stroke-opacity:1;image-rendering:optimizeQuality;shape-rendering:geometricPrecision;text-rendering:geometricPrecision" />
    <path
       class="fil3 str1"
       d="m 43.808125,60.136349 c -8.99584,8.99583 -23.01875,-10.84792 -35.4541697,-7.67292 -5.02708,1.32292 20.6374997,-6.35 32.8083297,-32.80833 8.99584,8.99583 11.90625,31.48541 2.91042,40.48125 z"
       id="path709-5-4-0-5"
       inkscape:connector-curvature="0"
       style="clip-rule:evenodd;fill:#fefefe;fill-rule:evenodd;stroke:#fefefe;stroke-width:1.5624969;image-rendering:optimizeQuality;shape-rendering:geometricPrecision;text-rendering:geometricPrecision" />
    <path
       class="fil3 str1"
       d="m -68.375215,113.84676 c 8.99583,-8.99583 23.01875,10.84792 35.45417,7.67292 5.02708,-1.32292 -20.6375,6.35 -32.80834,32.80834 -8.99583,-8.99584 -11.90625,-31.48542 -2.91041,-40.48126 z"
       id="path711-4-3-7-0"
       inkscape:connector-curvature="0"
       style="clip-rule:evenodd;fill:#fefefe;fill-rule:evenodd;stroke:#fefefe;stroke-width:1.5624969;image-rendering:optimizeQuality;shape-rendering:geometricPrecision;text-rendering:geometricPrecision" />
    <polygon
       class="fil3 str3"
       points="37067,12565 36348,12385 36324,12500 37038,12679 "
       id="polygon713-5-35-6-1"
       style="clip-rule:evenodd;fill:#fefefe;fill-rule:evenodd;stroke:#fefefe;stroke-width:2.36220002;image-rendering:optimizeQuality;shape-rendering:geometricPrecision;text-rendering:geometricPrecision"
       transform="matrix(0.26458333,0,0,0.26458333,-9590.4646,-3196.8843)" />
    <rect
       class="fil3 str3"
       x="82.172829"
       y="59.078445"
       width="50.799999"
       height="144.72708"
       id="rect715-7-2-7-5"
       style="clip-rule:evenodd;fill:#fefefe;fill-rule:evenodd;stroke:#fefefe;stroke-width:0.62499875;image-rendering:optimizeQuality;shape-rendering:geometricPrecision;text-rendering:geometricPrecision" />
    <ellipse
       class="fil3 str3"
       cx="107.57282"
       cy="59.078445"
       rx="25.4"
       ry="23.547916"
       id="ellipse717-3-6-5-0"
       style="clip-rule:evenodd;fill:#fefefe;fill-rule:evenodd;stroke:#fefefe;stroke-width:0.62499875;image-rendering:optimizeQuality;shape-rendering:geometricPrecision;text-rendering:geometricPrecision" />
    <path
       class="fil3 str1"
       d="m -12.283545,40.821759 c 25.4,0 46.30208,20.6375 46.30208,46.302091 0,25.4 -20.6375,46.30208 -46.30208,46.30208 -25.4,0 -46.30209,-20.6375 -46.30209,-46.30208 0,-25.400001 20.6375,-46.302091 46.30209,-46.302091 z m 0,18.52084 c 15.3458303,0 27.78125,12.43541 27.78125,27.781251 0,15.34583 -12.4354197,27.78125 -27.78125,27.78125 -15.34584,0 -27.78125,-12.43542 -27.78125,-27.78125 0,-15.345841 12.43541,-27.781251 27.78125,-27.781251 z"
       id="path719-9-2-6-3"
       inkscape:connector-curvature="0"
       style="clip-rule:evenodd;fill:#fefefe;fill-rule:evenodd;stroke:#fefefe;stroke-width:1.5624969;image-rendering:optimizeQuality;shape-rendering:geometricPrecision;text-rendering:geometricPrecision" />
    <path
       class="fil3 str1"
       d="m -71.021045,66.221759 c 12.7,0 8.73125,23.812501 19.57916,30.691675 4.49792,2.64583 -19.05,-10.054174 -46.30208,0 0,-12.700004 13.75833,-30.691675 26.72292,-30.691675 z"
       id="path721-5-63-0-1"
       inkscape:connector-curvature="0"
       style="clip-rule:evenodd;fill:#fefefe;fill-rule:evenodd;stroke:#fefefe;stroke-width:1.5624969;image-rendering:optimizeQuality;shape-rendering:geometricPrecision;text-rendering:geometricPrecision" />
    <path
       class="fil3 str1"
       d="m -12.283545,40.821759 c 25.4,0 46.30208,20.6375 46.30208,46.302091 0,25.4 -20.6375,46.30208 -46.30208,46.30208 -25.4,0 -46.30209,-20.6375 -46.30209,-46.30208 0,-25.400001 20.6375,-46.302091 46.30209,-46.302091 z m 0,18.52084 c 15.3458303,0 27.78125,12.43541 27.78125,27.781251 0,15.34583 -12.4354197,27.78125 -27.78125,27.78125 -15.34584,0 -27.78125,-12.43542 -27.78125,-27.78125 0,-15.345841 12.43541,-27.781251 27.78125,-27.781251 z"
       id="path723-7-1-2-9"
       inkscape:connector-curvature="0"
       style="clip-rule:evenodd;fill:#fefefe;fill-rule:evenodd;stroke:#fefefe;stroke-width:1.5624969;image-rendering:optimizeQuality;shape-rendering:geometricPrecision;text-rendering:geometricPrecision" />
    <path
       class="fil3 str1"
       d="m -71.021045,66.221759 c 12.7,0 8.73125,23.812501 19.57916,30.691675 4.49792,2.64583 -19.05,-10.054174 -46.30208,0 0,-12.700004 13.75833,-30.691675 26.72292,-30.691675 z"
       id="path725-1-2-9-2"
       inkscape:connector-curvature="0"
       style="clip-rule:evenodd;fill:#fefefe;fill-rule:evenodd;stroke:#fefefe;stroke-width:1.5624969;image-rendering:optimizeQuality;shape-rendering:geometricPrecision;text-rendering:geometricPrecision" />
    <path
       class="fil3 str1"
       d="m -12.283545,133.16135 c -25.4,0 -46.30209,-20.6375 -46.30209,-46.30209 0,-25.400001 20.6375,-46.302081 46.30209,-46.302081 25.4,0 46.30208,20.6375 46.30208,46.302081 0,25.4 -20.6375,46.30209 -46.30208,46.30209 z m 0,-18.52084 c -15.34584,0 -27.78125,-12.43541 -27.78125,-27.78125 0,-15.345831 12.43541,-27.781251 27.78125,-27.781251 15.3458303,0 27.78125,12.43542 27.78125,27.781251 0,15.34584 -12.4354197,27.78125 -27.78125,27.78125 z"
       id="path727-7-7-6-9"
       inkscape:connector-curvature="0"
       style="clip-rule:evenodd;fill:#fefefe;fill-rule:evenodd;stroke:#fefefe;stroke-width:1.5624969;image-rendering:optimizeQuality;shape-rendering:geometricPrecision;text-rendering:geometricPrecision" />
    <path
       class="fil3 str1"
       d="m 46.453955,107.76135 c -12.7,0 -8.73125,-23.812501 -19.57917,-30.691671 -4.49791,-2.64583 19.05,10.054171 46.30209,0 0,12.700001 -13.75834,30.691671 -26.72292,30.691671 z"
       id="path729-1-4-3-0"
       inkscape:connector-curvature="0"
       style="clip-rule:evenodd;fill:#fefefe;fill-rule:evenodd;stroke:#fefefe;stroke-width:1.5624969;image-rendering:optimizeQuality;shape-rendering:geometricPrecision;text-rendering:geometricPrecision" />
    <path
       class="fil3 str1"
       d="m 8.3539553,28.386349 c 0,12.7 -23.8125003,8.73125 -30.6916703,19.57916 -2.64583,4.49792 10.05417,-19.05 0,-46.3020799 12.7000003,0 30.6916703,13.7583299 30.6916703,26.7229199 z"
       id="path731-5-5-8-0"
       inkscape:connector-curvature="0"
       style="clip-rule:evenodd;fill:#fefefe;fill-rule:evenodd;stroke:#fefefe;stroke-width:1.5624969;image-rendering:optimizeQuality;shape-rendering:geometricPrecision;text-rendering:geometricPrecision" />
    <path
       class="fil3 str1"
       d="m -58.585635,87.12385 c 0,-25.400001 20.6375,-46.302091 46.30209,-46.302091 25.4,0 46.30208,20.6375 46.30208,46.302091 0,25.4 -20.6375,46.30208 -46.30208,46.30208 -25.4,0 -46.30209,-20.6375 -46.30209,-46.30208 z m 18.52084,0 c 0,-15.345841 12.43541,-27.781251 27.78125,-27.781251 15.3458303,0 27.78125,12.43541 27.78125,27.781251 0,15.34583 -12.4354197,27.78125 -27.78125,27.78125 -15.34584,0 -27.78125,-12.43542 -27.78125,-27.78125 z"
       id="path733-5-0-1-6"
       inkscape:connector-curvature="0"
       style="clip-rule:evenodd;fill:#fefefe;fill-rule:evenodd;stroke:#fefefe;stroke-width:1.5624969;image-rendering:optimizeQuality;shape-rendering:geometricPrecision;text-rendering:geometricPrecision" />
    <path
       class="fil3 str1"
       d="m -32.921045,145.59676 c 0,-12.7 23.8125003,-8.73125 30.6916703,-19.57916 2.64583005,-4.49792 -10.0541703,19.05 0,46.30209 -12.7000003,0 -30.6916703,-13.75833 -30.6916703,-26.72293 z"
       id="path735-7-0-6-6"
       inkscape:connector-curvature="0"
       style="clip-rule:evenodd;fill:#fefefe;fill-rule:evenodd;stroke:#fefefe;stroke-width:1.5624969;image-rendering:optimizeQuality;shape-rendering:geometricPrecision;text-rendering:geometricPrecision" />
    <path
       class="fil3 str1"
       d="m -39.271045,30.767599 c 8.99583,8.99583 -10.84792,23.01875 -7.67292,35.45416 1.32292,5.02709 -6.35,-20.6375 -32.80833,-32.80833 8.99583,-8.99583 31.48541,-11.90625 40.48125,-2.91042 z"
       id="path737-5-3-9-0"
       inkscape:connector-curvature="0"
       style="clip-rule:evenodd;fill:#fefefe;fill-rule:evenodd;stroke:#fefefe;stroke-width:1.5624969;image-rendering:optimizeQuality;shape-rendering:geometricPrecision;text-rendering:geometricPrecision" />
    <path
       class="fil3 str1"
       d="m 14.439375,143.21551 c -8.9958397,-8.99583 10.84791,-23.01875 7.67291,-35.45416 -1.32291,-5.02709 6.35,20.6375 32.80834,32.80833 -8.99584,8.99584 -31.48542,11.90626 -40.48125,2.91042 z"
       id="path739-6-2-3-6"
       inkscape:connector-curvature="0"
       style="clip-rule:evenodd;fill:#fefefe;fill-rule:evenodd;stroke:#fefefe;stroke-width:1.5624969;image-rendering:optimizeQuality;shape-rendering:geometricPrecision;text-rendering:geometricPrecision" />
    <path
       class="fil3 str1"
       d="m 43.808125,60.136349 c -8.99584,8.99583 -23.01875,-10.84792 -35.4541697,-7.67292 -5.02708,1.32292 20.6374997,-6.35 32.8083297,-32.80833 8.99584,8.99583 11.90625,31.48541 2.91042,40.48125 z"
       id="path741-6-9-1-5"
       inkscape:connector-curvature="0"
       style="clip-rule:evenodd;fill:#fefefe;fill-rule:evenodd;stroke:#fefefe;stroke-width:1.5624969;image-rendering:optimizeQuality;shape-rendering:geometricPrecision;text-rendering:geometricPrecision" />
    <path
       class="fil3 str1"
       d="m -68.375215,113.84676 c 8.99583,-8.99583 23.01875,10.84792 35.45417,7.67292 5.02708,-1.32292 -20.6375,6.35 -32.80834,32.80834 -8.99583,-8.99584 -11.90625,-31.48542 -2.91041,-40.48126 z"
       id="path743-9-0-0-7"
       inkscape:connector-curvature="0"
       style="clip-rule:evenodd;fill:#fefefe;fill-rule:evenodd;stroke:#fefefe;stroke-width:1.5624969;image-rendering:optimizeQuality;shape-rendering:geometricPrecision;text-rendering:geometricPrecision" />
    <text
       xml:space="preserve"
       style="font-style:normal;font-weight:normal;font-size:105.38443756px;line-height:1.25;font-family:sans-serif;letter-spacing:0px;word-spacing:0px;clip-rule:evenodd;fill:#000000;fill-opacity:1;fill-rule:evenodd;stroke:none;stroke-width:2.63461089;image-rendering:optimizeQuality;shape-rendering:geometricPrecision;text-rendering:geometricPrecision"
       x="34.652214"
       y="336.12122"
       id="text13215-9-81-4-2-6"><tspan
         sodipodi:role="line"
         id="tspan13213-7-9-00-1-0"
         x="34.652214"
         y="336.12122"
         style="fill:#ffffff;fill-opacity:1;stroke-width:2.63461089">R</tspan></text>
    <path
       style="fill:none;stroke:#ffffff;stroke-width:24.7455616;stroke-linecap:butt;stroke-linejoin:miter;stroke-miterlimit:4;stroke-dasharray:none;stroke-opacity:1;marker-start:url(#TriangleInS)"
       d="m 41.873716,191.78556 c 33.24348,62.26521 114.910654,53.20702 125.111584,-0.61202"
       id="path9653"
       inkscape:connector-curvature="0"
       sodipodi:nodetypes="cc" />
  </g>
</svg>
