<?xml version="1.0" encoding="UTF-8" standalone="no"?>
<!-- Created with Inkscape (http://www.inkscape.org/) -->

<svg
   xmlns:dc="http://purl.org/dc/elements/1.1/"
   xmlns:cc="http://creativecommons.org/ns#"
   xmlns:rdf="http://www.w3.org/1999/02/22-rdf-syntax-ns#"
   xmlns:svg="http://www.w3.org/2000/svg"
   xmlns="http://www.w3.org/2000/svg"
   xmlns:sodipodi="http://sodipodi.sourceforge.net/DTD/sodipodi-0.dtd"
   xmlns:inkscape="http://www.inkscape.org/namespaces/inkscape"
   width="182.60681mm"
   height="198.84253mm"
   viewBox="0 0 182.60681 198.84253"
   version="1.1"
   id="svg6424"
   inkscape:version="0.92.3 (2405546, 2018-03-11)"
   sodipodi:docname="Zeichnung (Kopie).svg"
   inkscape:export-filename="/home/christian/Dokumente/einstellungen.png"
   inkscape:export-xdpi="96"
   inkscape:export-ydpi="96">
  <defs
     id="defs6418">
    <marker
       inkscape:stockid="Arrow1Mend"
       orient="auto"
       refY="0"
       refX="0"
       id="Arrow1Mend-7"
       style="overflow:visible"
       inkscape:isstock="true">
      <path
         id="path9270-3"
         d="M 0,0 5,-5 -12.5,0 5,5 Z"
         style="fill:#ffffff;fill-opacity:1;fill-rule:evenodd;stroke:#ffffff;stroke-width:1.00000003pt;stroke-opacity:1"
         transform="matrix(-0.4,0,0,-0.4,-4,0)"
         inkscape:connector-curvature="0" />
    </marker>
  </defs>
  <sodipodi:namedview
     id="base"
     pagecolor="#ffffff"
     bordercolor="#666666"
     borderopacity="1.0"
     inkscape:pageopacity="0.0"
     inkscape:pageshadow="2"
     inkscape:zoom="0.49497475"
     inkscape:cx="-264.86077"
     inkscape:cy="340.02799"
     inkscape:document-units="mm"
     inkscape:current-layer="layer1"
     showgrid="false"
     inkscape:window-width="1920"
     inkscape:window-height="999"
     inkscape:window-x="0"
     inkscape:window-y="0"
     inkscape:window-maximized="1"
     inkscape:snap-bbox="true"
     inkscape:bbox-paths="true"
     inkscape:bbox-nodes="true"
     inkscape:snap-bbox-edge-midpoints="true"
     inkscape:snap-bbox-midpoints="true"
     inkscape:object-paths="true"
     inkscape:snap-intersection-paths="true"
     inkscape:snap-smooth-nodes="true"
     inkscape:snap-midpoints="true"
     inkscape:snap-object-midpoints="true"
     inkscape:snap-center="true"
     inkscape:snap-text-baseline="true"
     inkscape:snap-page="true" />
  <metadata
     id="metadata6421">
    <rdf:RDF>
      <cc:Work
         rdf:about="">
        <dc:format>image/svg+xml</dc:format>
        <dc:type
           rdf:resource="http://purl.org/dc/dcmitype/StillImage" />
        <dc:title></dc:title>
      </cc:Work>
    </rdf:RDF>
  </metadata>
  <g
     inkscape:label="Ebene 1"
     inkscape:groupmode="layer"
     id="layer1"
     transform="translate(-9.1352038,-25.086818)">
    <rect
       style="fill:#5b5b5b;fill-opacity:1;stroke:#b0cb1f;stroke-width:0;stroke-linejoin:miter;stroke-miterlimit:0;stroke-dasharray:none;stroke-opacity:1;paint-order:normal"
       id="rect8791"
       width="182.60681"
       height="198.84253"
       x="9.1352043"
       y="25.086819"
       inkscape:export-xdpi="96"
       inkscape:export-ydpi="96" />
    <path
       style="clip-rule:evenodd;fill:#fefefe;fill-rule:evenodd;stroke-width:0.17211469;image-rendering:optimizeQuality;shape-rendering:geometricPrecision;text-rendering:geometricPrecision"
       inkscape:connector-curvature="0"
       id="path666-7-90"
       d="m 150.52399,192.32127 -16.35091,9.46632 -7.22882,-12.56438 c -5.33555,2.2375 -11.01533,3.78653 -17.03935,4.47499 v 14.62975 H 90.972295 V 193.6982 C 85.120397,192.83762 79.2685,191.28859 73.932943,189.22321 l -7.228818,12.56438 -16.350892,-9.46632 7.228817,-12.56436 c -4.647096,-3.61441 -8.777849,-7.74517 -12.392258,-12.39227 l -12.564378,7.22883 -9.466306,-16.35091 12.564371,-7.22882 C 33.48599,145.6782 31.936957,139.99841 31.2485,133.97439 H 16.618747 V 115.04178 H 31.2485 c 0.86057,-5.85191 2.409602,-11.70381 4.474979,-17.039363 L 23.159108,90.773599 32.625414,74.422701 45.189792,81.651518 C 48.804201,77.004422 52.934954,72.873669 57.58205,69.25926 L 50.353233,56.694887 66.704125,47.228579 73.932943,59.792952 C 79.2685,57.555461 84.948285,56.006428 90.972295,55.31797 V 40.68822 h 18.932615 v 14.62975 c 5.8519,0.860573 11.7038,2.409605 17.03935,4.474982 l 7.22882,-12.564373 16.35091,9.466308 -7.22883,12.564373 c 4.6471,3.614409 8.77786,7.745162 12.39227,12.392258 l 12.56436,-7.228817 9.46631,16.350898 -12.56437,7.228818 c 2.23749,5.335553 3.78652,11.015343 4.47498,17.039363 h 14.62976 v 18.93261 h -14.62976 c -0.86057,5.8519 -2.40961,11.70381 -4.47498,17.03935 l 12.56437,7.22882 -9.46631,16.35091 -12.56436,-7.22883 c -3.61441,4.6471 -7.74517,8.77786 -12.39227,12.39227 z M 100.43861,86.814959 c 20.82587,0 37.69311,16.867241 37.69311,37.693121 0,20.82588 -16.86724,37.69312 -37.69311,37.69312 -20.825885,0 -37.693119,-16.86724 -37.693119,-37.69312 0,-20.82588 16.867234,-37.693121 37.693119,-37.693121 z"
       class="fil3" />
  </g>
</svg>
