<?xml version="1.0" encoding="UTF-8" standalone="no"?>
<!-- Created with Inkscape (http://www.inkscape.org/) -->

<svg
   xmlns:dc="http://purl.org/dc/elements/1.1/"
   xmlns:cc="http://creativecommons.org/ns#"
   xmlns:rdf="http://www.w3.org/1999/02/22-rdf-syntax-ns#"
   xmlns:svg="http://www.w3.org/2000/svg"
   xmlns="http://www.w3.org/2000/svg"
   xmlns:sodipodi="http://sodipodi.sourceforge.net/DTD/sodipodi-0.dtd"
   xmlns:inkscape="http://www.inkscape.org/namespaces/inkscape"
   width="182.60681mm"
   height="198.84253mm"
   viewBox="0 0 182.60681 198.84253"
   version="1.1"
   id="svg6424"
   inkscape:version="0.92.4 (5da689c313, 2019-01-14)"
   sodipodi:docname="rechterTrackVor.svg"
   inkscape:export-filename="/home/christian/Dokumente/rechterTrackVor.png"
   inkscape:export-xdpi="96"
   inkscape:export-ydpi="96">
  <defs
     id="defs6418">
    <marker
       inkscape:stockid="Arrow1Mend"
       orient="auto"
       refY="0"
       refX="0"
       id="Arrow1Mend-7"
       style="overflow:visible"
       inkscape:isstock="true">
      <path
         id="path9270-3"
         d="M 0,0 5,-5 -12.5,0 5,5 Z"
         style="fill:#ffffff;fill-opacity:1;fill-rule:evenodd;stroke:#ffffff;stroke-width:1.00000003pt;stroke-opacity:1"
         transform="matrix(-0.4,0,0,-0.4,-4,0)"
         inkscape:connector-curvature="0" />
    </marker>
    <marker
       inkscape:stockid="Arrow1Mend"
       orient="auto"
       refY="0"
       refX="0"
       id="Arrow1Mend-3-4"
       style="overflow:visible"
       inkscape:isstock="true">
      <path
         inkscape:connector-curvature="0"
         id="path9270-5-0"
         d="M 0,0 5,-5 -12.5,0 5,5 Z"
         style="fill:#ffffff;fill-opacity:1;fill-rule:evenodd;stroke:#ffffff;stroke-width:1.00000003pt;stroke-opacity:1"
         transform="matrix(-0.4,0,0,-0.4,-4,0)" />
    </marker>
  </defs>
  <sodipodi:namedview
     id="base"
     pagecolor="#ffffff"
     bordercolor="#666666"
     borderopacity="1.0"
     inkscape:pageopacity="0.0"
     inkscape:pageshadow="2"
     inkscape:zoom="0.7"
     inkscape:cx="62.044695"
     inkscape:cy="415.30781"
     inkscape:document-units="mm"
     inkscape:current-layer="layer1"
     showgrid="false"
     inkscape:window-width="2160"
     inkscape:window-height="1330"
     inkscape:window-x="-12"
     inkscape:window-y="-12"
     inkscape:window-maximized="1"
     inkscape:snap-bbox="true"
     inkscape:bbox-paths="true"
     inkscape:bbox-nodes="true"
     inkscape:snap-bbox-edge-midpoints="true"
     inkscape:snap-bbox-midpoints="true"
     inkscape:object-paths="true"
     inkscape:snap-intersection-paths="true"
     inkscape:snap-smooth-nodes="true"
     inkscape:snap-midpoints="true"
     inkscape:snap-object-midpoints="true"
     inkscape:snap-center="true"
     inkscape:snap-text-baseline="true"
     inkscape:snap-page="true"
     showguides="true"
     inkscape:guide-bbox="true">
    <sodipodi:guide
       position="91.303405,198.84253"
       orientation="1,0"
       id="guide20"
       inkscape:locked="false" />
  </sodipodi:namedview>
  <metadata
     id="metadata6421">
    <rdf:RDF>
      <cc:Work
         rdf:about="">
        <dc:format>image/svg+xml</dc:format>
        <dc:type
           rdf:resource="http://purl.org/dc/dcmitype/StillImage" />
        <dc:title />
      </cc:Work>
    </rdf:RDF>
  </metadata>
  <g
     inkscape:label="Ebene 1"
     inkscape:groupmode="layer"
     id="layer1"
     transform="translate(-9.1352038,-25.086818)">
    <rect
       style="fill:#b0cb1f;fill-opacity:1;stroke:#b0cb1f;stroke-width:0;stroke-linejoin:miter;stroke-miterlimit:0;stroke-dasharray:none;stroke-opacity:1;paint-order:normal"
       id="rect8791"
       width="182.60681"
       height="198.84253"
       x="9.1352043"
       y="25.086819"
       inkscape:export-xdpi="96"
       inkscape:export-ydpi="96" />
    <path
       class="fil12"
       d="m 37.494242,112.21999 c 5.870984,0 11.208446,2.4097 15.077921,6.29204 3.869636,3.88218 6.271445,9.23715 6.271445,15.1274 0,5.89042 -2.401809,11.24523 -6.271445,15.12757 -3.869475,3.88218 -9.206937,6.29187 -15.077921,6.29187 -5.871144,0 -11.208445,-2.40969 -15.07808,-6.29187 -3.869475,-3.88234 -6.271286,-9.23715 -6.271286,-15.12757 0,-5.89025 2.401811,-11.24522 6.271286,-15.1274 3.869635,-3.88234 9.206936,-6.29204 15.07808,-6.29204 z m 7.20543,14.19036 c -1.868127,-1.87409 -4.403317,-2.94513 -7.20543,-2.94513 -2.802111,0 -5.337301,1.20485 -7.205428,2.94513 -1.868128,1.87426 -2.935492,4.41778 -2.935492,7.22908 0,2.81131 1.200905,5.35482 2.935492,7.22908 1.868127,1.87426 4.403317,2.94513 7.205428,2.94513 2.802113,0 5.337303,-1.20485 7.20543,-2.94513 1.867968,-1.87426 2.935492,-4.41777 2.935492,-7.22908 0,-2.8113 -1.200905,-5.35482 -2.935492,-7.22908 z"
       id="path753-16-9"
       inkscape:connector-curvature="0"
       style="clip-rule:evenodd;fill:#ffffff;fill-rule:nonzero;stroke-width:0.13365246;image-rendering:optimizeQuality;shape-rendering:geometricPrecision;text-rendering:geometricPrecision" />
    <path
       class="fil12"
       d="m 100.47498,112.21999 c 5.87098,0 11.20828,2.4097 15.07791,6.29204 3.86965,3.88218 6.27146,9.23715 6.27146,15.1274 0,5.89042 -2.40181,11.24523 -6.27146,15.12757 -3.86963,3.88218 -9.20693,6.29187 -15.07791,6.29187 -5.871149,0 -11.208448,-2.40969 -15.078086,-6.29187 -3.869633,-3.88234 -6.271444,-9.23715 -6.271444,-15.12757 0,-5.89025 2.401811,-11.24522 6.271444,-15.1274 3.869638,-3.88234 9.206937,-6.29204 15.078086,-6.29204 z m 7.20526,14.19036 c -1.86797,-1.87409 -4.40315,-2.94513 -7.20526,-2.94513 -2.802115,0 -5.337468,1.20485 -7.205435,2.94513 -1.868124,1.87426 -2.935649,4.41778 -2.935649,7.22908 0,2.81131 1.200905,5.35482 2.935649,7.22908 1.867967,1.87426 4.40332,2.94513 7.205435,2.94513 2.80211,0 5.33729,-1.20485 7.20526,-2.94513 1.86813,-1.87426 2.93566,-4.41777 2.93566,-7.22908 0,-2.8113 -1.20091,-5.35482 -2.93566,-7.22908 z"
       id="path755-7-83"
       inkscape:connector-curvature="0"
       style="clip-rule:evenodd;fill:#ffffff;fill-rule:nonzero;stroke-width:0.13365246;image-rendering:optimizeQuality;shape-rendering:geometricPrecision;text-rendering:geometricPrecision" />
    <path
       class="fil12"
       d="m 163.58909,112.21999 c 5.87098,0 11.20844,2.4097 15.07792,6.29204 3.86964,3.88218 6.27144,9.23715 6.27144,15.1274 0,5.89042 -2.4018,11.24523 -6.27144,15.12757 -3.86948,3.88218 -9.20694,6.29187 -15.07792,6.29187 -5.87114,0 -11.20844,-2.40969 -15.07808,-6.29187 -3.86963,-3.88234 -6.27144,-9.23715 -6.27144,-15.12757 0,-5.89025 2.40181,-11.24522 6.27144,-15.1274 3.86964,-3.88234 9.20694,-6.29204 15.07808,-6.29204 z m 7.20543,14.19036 c -1.86813,-1.87409 -4.40332,-2.94513 -7.20543,-2.94513 -2.80211,0 -5.33747,1.20485 -7.20543,2.94513 -1.86813,1.87426 -2.93565,4.41778 -2.93565,7.22908 0,2.81131 1.20091,5.35482 2.93565,7.22908 1.86796,1.87426 4.40332,2.94513 7.20543,2.94513 2.80211,0 5.3373,-1.20485 7.20543,-2.94513 1.86796,-1.87426 2.93549,-4.41777 2.93549,-7.22908 0,-2.8113 -1.2009,-5.35482 -2.93549,-7.22908 z"
       id="path757-2-7"
       inkscape:connector-curvature="0"
       style="clip-rule:evenodd;fill:#ffffff;fill-rule:nonzero;stroke-width:0.13365246;image-rendering:optimizeQuality;shape-rendering:geometricPrecision;text-rendering:geometricPrecision" />
    <path
       class="fil12"
       d="M 37.494242,112.21999 H 163.58909 v 11.11142 H 37.494242 Z M 163.58909,155.05887 H 37.494242 V 143.94761 H 163.58909 Z"
       id="path759-2-10"
       inkscape:connector-curvature="0"
       style="clip-rule:evenodd;fill:#ffffff;fill-rule:nonzero;stroke-width:0.13365246;image-rendering:optimizeQuality;shape-rendering:geometricPrecision;text-rendering:geometricPrecision" />
    <path
       style="clip-rule:evenodd;fill:#ffffff;fill-rule:evenodd;stroke:#ffffff;stroke-width:5.92791224;stroke-linecap:butt;stroke-linejoin:miter;stroke-miterlimit:4;stroke-dasharray:none;stroke-opacity:1;marker-end:url(#Arrow1Mend-7);image-rendering:optimizeQuality;shape-rendering:geometricPrecision;text-rendering:geometricPrecision"
       d="m 100.0008,105.08456 0.93415,-61.135174"
       id="path9661-1"
       inkscape:connector-curvature="0"
       sodipodi:nodetypes="cc" />
    <path
       style="clip-rule:evenodd;fill:none;fill-rule:evenodd;stroke:#ffffff;stroke-width:5.9372139;stroke-linecap:butt;stroke-linejoin:miter;stroke-miterlimit:4;stroke-dasharray:none;stroke-opacity:1;marker-end:url(#Arrow1Mend-3-4);image-rendering:optimizeQuality;shape-rendering:geometricPrecision;text-rendering:geometricPrecision"
       d="M 99.992508,106.09518 100.9278,43.77789"
       id="path9661-5-7"
       inkscape:connector-curvature="0"
       sodipodi:nodetypes="cc" />
    <text
       xml:space="preserve"
       style="font-style:normal;font-weight:normal;font-size:63.7518959px;line-height:1.25;font-family:sans-serif;letter-spacing:0px;word-spacing:0px;clip-rule:evenodd;fill:#000000;fill-opacity:1;fill-rule:evenodd;stroke:none;stroke-width:1.59379745;image-rendering:optimizeQuality;shape-rendering:geometricPrecision;text-rendering:geometricPrecision"
       x="79.160095"
       y="212.82816"
       id="text13215-9-81-4"
       transform="scale(0.99785442,1.0021502)"><tspan
         sodipodi:role="line"
         id="tspan13213-7-9-00"
         x="79.160095"
         y="212.82816"
         style="fill:#ffffff;fill-opacity:1;stroke-width:1.59379745">E</tspan></text>
  </g>
</svg>
