<?xml version="1.0" encoding="UTF-8" standalone="no"?>
<!-- Created with Inkscape (http://www.inkscape.org/) -->

<svg
   xmlns:dc="http://purl.org/dc/elements/1.1/"
   xmlns:cc="http://creativecommons.org/ns#"
   xmlns:rdf="http://www.w3.org/1999/02/22-rdf-syntax-ns#"
   xmlns:svg="http://www.w3.org/2000/svg"
   xmlns="http://www.w3.org/2000/svg"
   xmlns:sodipodi="http://sodipodi.sourceforge.net/DTD/sodipodi-0.dtd"
   xmlns:inkscape="http://www.inkscape.org/namespaces/inkscape"
   width="182.60681mm"
   height="198.84253mm"
   viewBox="0 0 182.60681 198.84253"
   version="1.1"
   id="svg6424"
   inkscape:version="0.92.3 (2405546, 2018-03-11)"
   sodipodi:docname="Zeichnung (5. Kopie).svg"
   inkscape:export-filename="/home/christian/Dokumente/rechterTrackZurueck.png"
   inkscape:export-xdpi="96"
   inkscape:export-ydpi="96">
  <defs
     id="defs6418">
    <marker
       inkscape:stockid="Arrow1Mend"
       orient="auto"
       refY="0"
       refX="0"
       id="Arrow1Mend-7"
       style="overflow:visible"
       inkscape:isstock="true">
      <path
         id="path9270-3"
         d="M 0,0 5,-5 -12.5,0 5,5 Z"
         style="fill:#ffffff;fill-opacity:1;fill-rule:evenodd;stroke:#ffffff;stroke-width:1.00000003pt;stroke-opacity:1"
         transform="matrix(-0.4,0,0,-0.4,-4,0)"
         inkscape:connector-curvature="0" />
    </marker>
    <marker
       inkscape:stockid="Arrow1Mend"
       orient="auto"
       refY="0"
       refX="0"
       id="Arrow1Mend-9-085"
       style="overflow:visible"
       inkscape:isstock="true">
      <path
         inkscape:connector-curvature="0"
         id="path9270-2-3"
         d="M 0,0 5,-5 -12.5,0 5,5 Z"
         style="fill:#ffffff;fill-opacity:1;fill-rule:evenodd;stroke:#ffffff;stroke-width:1.00000003pt;stroke-opacity:1"
         transform="matrix(-0.4,0,0,-0.4,-4,0)" />
    </marker>
  </defs>
  <sodipodi:namedview
     id="base"
     pagecolor="#ffffff"
     bordercolor="#666666"
     borderopacity="1.0"
     inkscape:pageopacity="0.0"
     inkscape:pageshadow="2"
     inkscape:zoom="0.7"
     inkscape:cx="-176.01279"
     inkscape:cy="398.18002"
     inkscape:document-units="mm"
     inkscape:current-layer="layer1"
     showgrid="false"
     inkscape:window-width="1920"
     inkscape:window-height="999"
     inkscape:window-x="0"
     inkscape:window-y="0"
     inkscape:window-maximized="1"
     inkscape:snap-bbox="true"
     inkscape:bbox-paths="true"
     inkscape:bbox-nodes="true"
     inkscape:snap-bbox-edge-midpoints="true"
     inkscape:snap-bbox-midpoints="true"
     inkscape:object-paths="true"
     inkscape:snap-intersection-paths="true"
     inkscape:snap-smooth-nodes="true"
     inkscape:snap-midpoints="true"
     inkscape:snap-object-midpoints="false"
     inkscape:snap-center="false"
     inkscape:snap-text-baseline="true"
     inkscape:snap-page="true" />
  <metadata
     id="metadata6421">
    <rdf:RDF>
      <cc:Work
         rdf:about="">
        <dc:format>image/svg+xml</dc:format>
        <dc:type
           rdf:resource="http://purl.org/dc/dcmitype/StillImage" />
        <dc:title></dc:title>
      </cc:Work>
    </rdf:RDF>
  </metadata>
  <g
     inkscape:label="Ebene 1"
     inkscape:groupmode="layer"
     id="layer1"
     transform="translate(-9.1352038,-25.086818)">
    <rect
       style="fill:#b0cb1f;fill-opacity:1;stroke:#b0cb1f;stroke-width:0;stroke-linejoin:miter;stroke-miterlimit:0;stroke-dasharray:none;stroke-opacity:1;paint-order:normal"
       id="rect8791"
       width="182.60681"
       height="198.84253"
       x="9.1352043"
       y="25.086819"
       inkscape:export-xdpi="96"
       inkscape:export-ydpi="96" />
    <path
       class="fil12"
       d="m 161.81963,76.757246 c -5.70421,0 -10.88977,-2.33353 -14.64938,-6.09314 -3.75962,-3.75946 -6.09315,-8.94502 -6.09315,-14.64924 0,-5.70421 2.33353,-10.88977 6.09315,-14.64939 3.75961,-3.75946 8.94517,-6.09298 14.64938,-6.09298 5.70407,0 10.88978,2.33352 14.64924,6.09298 3.75962,3.75962 6.09314,8.94518 6.09314,14.64939 0,5.70422 -2.33352,10.88978 -6.09314,14.64924 -3.75946,3.75961 -8.94517,6.09314 -14.64924,6.09314 z m -7.00056,-13.74181 c 1.81485,1.81487 4.27812,2.85203 7.00056,2.85203 2.72244,0 5.18556,-1.16676 7.00057,-2.85203 1.81486,-1.81501 2.85203,-4.27812 2.85203,-7.00057 0,-2.72244 -1.16676,-5.18555 -2.85203,-7.00056 -1.81501,-1.81502 -4.27813,-2.85204 -7.00057,-2.85204 -2.72244,0 -5.18571,1.16677 -7.00056,2.85204 -1.81502,1.81501 -2.85219,4.27812 -2.85219,7.00056 0,2.72245 1.16676,5.18556 2.85219,7.00057 z"
       id="path753-16-3-43"
       inkscape:connector-curvature="0"
       style="clip-rule:evenodd;fill:#fefefe;fill-rule:nonzero;stroke-width:0.12963997;image-rendering:optimizeQuality;shape-rendering:geometricPrecision;text-rendering:geometricPrecision"
       sodipodi:nodetypes="ssscscssscscscscsc" />
    <path
       class="fil12"
       d="m 100.62952,76.757246 c -5.70421,0 -10.88977,-2.33353 -14.64939,-6.09314 -3.75946,-3.75946 -6.09298,-8.94502 -6.09298,-14.64924 0,-5.70421 2.33352,-10.88977 6.09298,-14.64939 3.75962,-3.75946 8.94518,-6.09298 14.64939,-6.09298 5.70407,0 10.88978,2.33352 14.64924,6.09298 3.75962,3.75962 6.09314,8.94518 6.09314,14.64939 0,5.70422 -2.33352,10.88978 -6.09314,14.64924 -3.75946,3.75961 -8.94517,6.09314 -14.64924,6.09314 z m -7.00056,-13.74181 c 1.81501,1.81487 4.27812,2.85203 7.00056,2.85203 2.72245,0 5.18556,-1.16676 7.00057,-2.85203 1.81487,-1.81501 2.85203,-4.27812 2.85203,-7.00057 0,-2.72244 -1.16676,-5.18555 -2.85203,-7.00056 -1.81501,-1.81502 -4.27812,-2.85204 -7.00057,-2.85204 -2.72244,0 -5.18555,1.16677 -7.00056,2.85204 -1.81502,1.81501 -2.85204,4.27812 -2.85204,7.00056 0,2.72245 1.16677,5.18556 2.85204,7.00057 z"
       id="path755-7-2-86"
       inkscape:connector-curvature="0"
       style="clip-rule:evenodd;fill:#fefefe;fill-rule:nonzero;stroke-width:0.12963997;image-rendering:optimizeQuality;shape-rendering:geometricPrecision;text-rendering:geometricPrecision"
       sodipodi:nodetypes="ssscscssscscscscsc" />
    <path
       class="fil12"
       d="m 39.30983,76.757246 c -5.70422,0 -10.88978,-2.33353 -14.649395,-6.09314 -3.759462,-3.75946 -6.092985,-8.94502 -6.092985,-14.64924 0,-5.70421 2.333523,-10.88977 6.092985,-14.64939 3.759615,-3.75946 8.945175,-6.09298 14.649395,-6.09298 5.70406,0 10.88977,2.33352 14.64923,6.09298 3.75962,3.75962 6.09314,8.94518 6.09314,14.64939 0,5.70422 -2.33352,10.88978 -6.09314,14.64924 -3.75946,3.75961 -8.94517,6.09314 -14.64923,6.09314 z m -7.00057,-13.74181 c 1.81501,1.81487 4.27812,2.85203 7.00057,2.85203 2.72244,0 5.18555,-1.16676 7.00056,-2.85203 1.81486,-1.81501 2.85204,-4.27812 2.85204,-7.00057 0,-2.72244 -1.16677,-5.18555 -2.85204,-7.00056 -1.81501,-1.81502 -4.27812,-2.85204 -7.00056,-2.85204 -2.72245,0 -5.18556,1.16677 -7.00057,2.85204 -1.81502,1.81501 -2.85204,4.27812 -2.85204,7.00056 0,2.72245 1.16677,5.18556 2.85204,7.00057 z"
       id="path757-2-5-0"
       inkscape:connector-curvature="0"
       style="clip-rule:evenodd;fill:#fefefe;fill-rule:nonzero;stroke-width:0.12963997;image-rendering:optimizeQuality;shape-rendering:geometricPrecision;text-rendering:geometricPrecision"
       sodipodi:nodetypes="ssscscssscscscscsc" />
    <path
       class="fil12"
       d="M 161.81963,76.757246 H 39.30983 v -10.76019 h 122.5098 z M 39.30983,35.272496 h 122.5098 v 10.76003 H 39.30983 Z"
       id="path759-2-3-82"
       inkscape:connector-curvature="0"
       style="clip-rule:evenodd;fill:#fefefe;fill-rule:nonzero;stroke-width:0.12963997;image-rendering:optimizeQuality;shape-rendering:geometricPrecision;text-rendering:geometricPrecision"
       sodipodi:nodetypes="cccccccccc" />
    <path
       style="clip-rule:evenodd;fill:none;fill-rule:evenodd;stroke:#ffffff;stroke-width:5.74994612;stroke-linecap:butt;stroke-linejoin:miter;stroke-miterlimit:4;stroke-dasharray:none;stroke-opacity:1;marker-end:url(#Arrow1Mend-9-085);image-rendering:optimizeQuality;shape-rendering:geometricPrecision;text-rendering:geometricPrecision"
       d="m 101.09006,82.647626 -0.61508,40.817594 -0.29251,19.40464"
       id="path9661-6-9"
       inkscape:connector-curvature="0"
       sodipodi:nodetypes="ccc" />
    <text
       xml:space="preserve"
       style="font-style:normal;font-weight:normal;font-size:61.74107361px;line-height:1.25;font-family:sans-serif;letter-spacing:0px;word-spacing:0px;clip-rule:evenodd;fill:#000000;fill-opacity:1;fill-rule:evenodd;stroke:none;stroke-width:1.54352677;image-rendering:optimizeQuality;shape-rendering:geometricPrecision;text-rendering:geometricPrecision"
       x="79.396851"
       y="207.5291"
       id="text13215-9-8-3"><tspan
         sodipodi:role="line"
         id="tspan13213-7-7-4"
         x="79.396851"
         y="207.5291"
         style="fill:#ffffff;fill-opacity:1;stroke-width:1.54352677">S</tspan></text>
  </g>
</svg>
